<svg width="32" height="52" viewBox="0 0 32 52" fill="none" xmlns="http://www.w3.org/2000/svg">
<path fill-rule="evenodd" clip-rule="evenodd" d="M31.6063 7.08579L30.0421 18.5609C29.965 19.1302 29.4884 19.5516 28.9235 19.5516H9.81151L10.0449 21.8466H29.6341C30.2583 21.8466 30.7636 22.3598 30.7636 22.9942C30.7636 23.6284 30.2583 24.1416 29.6341 24.1416H9.02555C8.4475 24.1416 7.96217 23.6978 7.90478 23.1107L5.98758 4.28418L2.26569 3.60959C1.6501 3.49976 1.23981 2.90348 1.35231 2.28051C1.4582 1.65294 2.03624 1.24056 2.66058 1.35025L7.22307 2.17519C7.71945 2.26473 8.09677 2.67716 8.1475 3.18589L8.45123 6.17324C8.65822 5.93303 8.96208 5.78128 9.30132 5.78128H30.4878C30.8143 5.78128 31.1277 5.92483 31.3394 6.17572C31.5534 6.42679 31.6505 6.75848 31.6063 7.08579ZM8.62246 7.84513L9.57937 17.2564H27.9408L29.1918 8.07619H9.30253C9.04704 8.07619 8.81161 7.99017 8.62246 7.84513ZM13.584 24.461C11.894 24.461 10.5306 25.8507 10.5306 27.5629C10.5306 29.2797 11.894 30.667 13.584 30.667C15.2697 30.667 16.6374 29.2797 16.6374 27.5629C16.6374 25.8507 15.2696 24.461 13.584 24.461ZM21.8264 27.5629C21.8264 25.8507 23.1898 24.461 24.8798 24.461C26.5654 24.461 27.9332 25.8507 27.9332 27.5629C27.9332 29.2797 26.5654 30.667 24.8798 30.667C23.1898 30.667 21.8264 29.2797 21.8264 27.5629Z" fill="#55585D"/>
<path d="M13.1934 43.1699H14.9453C14.9102 43.7441 14.752 44.2539 14.4707 44.6992C14.1934 45.1445 13.8047 45.4922 13.3047 45.7422C12.8086 45.9922 12.2109 46.1172 11.5117 46.1172C10.9648 46.1172 10.4746 46.0234 10.041 45.8359C9.60742 45.6445 9.23633 45.3711 8.92773 45.0156C8.62305 44.6602 8.39062 44.2305 8.23047 43.7266C8.07031 43.2227 7.99023 42.6582 7.99023 42.0332V41.4414C7.99023 40.8164 8.07227 40.252 8.23633 39.748C8.4043 39.2402 8.64258 38.8086 8.95117 38.4531C9.26367 38.0977 9.63672 37.8242 10.0703 37.6328C10.5039 37.4414 10.9883 37.3457 11.5234 37.3457C12.2344 37.3457 12.834 37.4746 13.3223 37.7324C13.8145 37.9902 14.1953 38.3457 14.4648 38.7988C14.7383 39.252 14.9023 39.7676 14.957 40.3457H13.1992C13.1797 40.002 13.1113 39.7109 12.9941 39.4727C12.877 39.2305 12.6992 39.0488 12.4609 38.9277C12.2266 38.8027 11.9141 38.7402 11.5234 38.7402C11.2305 38.7402 10.9746 38.7949 10.7559 38.9043C10.5371 39.0137 10.3535 39.1797 10.2051 39.4023C10.0566 39.625 9.94531 39.9062 9.87109 40.2461C9.80078 40.582 9.76562 40.9766 9.76562 41.4297V42.0332C9.76562 42.4746 9.79883 42.8633 9.86523 43.1992C9.93164 43.5312 10.0332 43.8125 10.1699 44.043C10.3105 44.2695 10.4902 44.4414 10.709 44.5586C10.9316 44.6719 11.1992 44.7285 11.5117 44.7285C11.8789 44.7285 12.1816 44.6699 12.4199 44.5527C12.6582 44.4355 12.8398 44.2617 12.9648 44.0312C13.0938 43.8008 13.1699 43.5137 13.1934 43.1699ZM19.416 44.5703V41.7461C19.416 41.543 19.3828 41.3691 19.3164 41.2246C19.25 41.0762 19.1465 40.9609 19.0059 40.8789C18.8691 40.7969 18.6914 40.7559 18.4727 40.7559C18.2852 40.7559 18.123 40.7891 17.9863 40.8555C17.8496 40.918 17.7441 41.0098 17.6699 41.1309C17.5957 41.248 17.5586 41.3867 17.5586 41.5469H15.8711C15.8711 41.2773 15.9336 41.0215 16.0586 40.7793C16.1836 40.5371 16.3652 40.3242 16.6035 40.1406C16.8418 39.9531 17.125 39.8066 17.4531 39.7012C17.7852 39.5957 18.1562 39.543 18.5664 39.543C19.0586 39.543 19.4961 39.625 19.8789 39.7891C20.2617 39.9531 20.5625 40.1992 20.7812 40.5273C21.0039 40.8555 21.1152 41.2656 21.1152 41.7578V44.4707C21.1152 44.8184 21.1367 45.1035 21.1797 45.3262C21.2227 45.5449 21.2852 45.7363 21.3672 45.9004V46H19.6621C19.5801 45.8281 19.5176 45.6133 19.4746 45.3555C19.4355 45.0938 19.416 44.832 19.416 44.5703ZM19.6387 42.1387L19.6504 43.0938H18.707C18.4844 43.0938 18.291 43.1191 18.127 43.1699C17.9629 43.2207 17.8281 43.293 17.7227 43.3867C17.6172 43.4766 17.5391 43.582 17.4883 43.7031C17.4414 43.8242 17.418 43.957 17.418 44.1016C17.418 44.2461 17.4512 44.377 17.5176 44.4941C17.584 44.6074 17.6797 44.6973 17.8047 44.7637C17.9297 44.8262 18.0762 44.8574 18.2441 44.8574C18.498 44.8574 18.7188 44.8066 18.9062 44.7051C19.0938 44.6035 19.2383 44.4785 19.3398 44.3301C19.4453 44.1816 19.5 44.041 19.5039 43.9082L19.9492 44.623C19.8867 44.7832 19.8008 44.9492 19.6914 45.1211C19.5859 45.293 19.4512 45.4551 19.2871 45.6074C19.123 45.7559 18.9258 45.8789 18.6953 45.9766C18.4648 46.0703 18.1914 46.1172 17.875 46.1172C17.4727 46.1172 17.1074 46.0371 16.7793 45.877C16.4551 45.7129 16.1973 45.4883 16.0059 45.2031C15.8184 44.9141 15.7246 44.5859 15.7246 44.2188C15.7246 43.8867 15.7871 43.5918 15.9121 43.334C16.0371 43.0762 16.2207 42.8594 16.4629 42.6836C16.709 42.5039 17.0156 42.3691 17.3828 42.2793C17.75 42.1855 18.1758 42.1387 18.6602 42.1387H19.6387ZM24.1035 41.043V46H22.416V39.6602H24.0039L24.1035 41.043ZM26.0137 39.6191L25.9844 41.1836C25.9023 41.1719 25.8027 41.1621 25.6855 41.1543C25.5723 41.1426 25.4688 41.1367 25.375 41.1367C25.1367 41.1367 24.9297 41.168 24.7539 41.2305C24.582 41.2891 24.4375 41.377 24.3203 41.4941C24.207 41.6113 24.1211 41.7539 24.0625 41.9219C24.0078 42.0898 23.9766 42.2812 23.9688 42.4961L23.6289 42.3906C23.6289 41.9805 23.6699 41.6035 23.752 41.2598C23.834 40.9121 23.9531 40.6094 24.1094 40.3516C24.2695 40.0938 24.4648 39.8945 24.6953 39.7539C24.9258 39.6133 25.1895 39.543 25.4863 39.543C25.5801 39.543 25.6758 39.5508 25.7734 39.5664C25.8711 39.5781 25.9512 39.5957 26.0137 39.6191ZM30.209 39.6602V40.8555H26.5176V39.6602H30.209ZM27.4316 38.0957H29.1191V44.0898C29.1191 44.2734 29.1426 44.4141 29.1895 44.5117C29.2402 44.6094 29.3145 44.6777 29.4121 44.7168C29.5098 44.752 29.6328 44.7695 29.7812 44.7695C29.8867 44.7695 29.9805 44.7656 30.0625 44.7578C30.1484 44.7461 30.2207 44.7344 30.2793 44.7227L30.2852 45.9648C30.1406 46.0117 29.9844 46.0488 29.8164 46.0762C29.6484 46.1035 29.4629 46.1172 29.2598 46.1172C28.8887 46.1172 28.5645 46.0566 28.2871 45.9355C28.0137 45.8105 27.8027 45.6113 27.6543 45.3379C27.5059 45.0645 27.4316 44.7051 27.4316 44.2598V38.0957Z" fill="#55585D"/>
</svg>
